<svg xmlns="http://www.w3.org/2000/svg" style="display: none;"><symbol id="circle" viewBox="0 0 612 612"><title>circle</title><path d="M306,0C137.27,0,0,137.27,0,306c0,168.73,137.27,306,306,306c168.73,0,306-137.27,306-306C612,137.27,474.73,0,306,0z M306,595.459C146.4,595.459,16.541,465.6,16.541,306S146.4,16.541,306,16.541S595.459,146.4,595.459,306 S465.6,595.459,306,595.459z M446.347,165.67L306,306.017L165.653,165.67l-11.694,11.694l140.346,140.347L165.653,446.347 l11.694,11.694L306,329.405l128.652,128.652l11.694-11.694L317.694,317.711l140.347-140.347L446.347,165.67z" fill="#AE1B1B"/></symbol><symbol id="link" viewBox="0 0 183.527 183.527"><title>link</title><path d="M50.767,132.749c1.464,1.464,3.384,2.196,5.303,2.196c1.919,0,3.839-0.732,5.303-2.196l71.362-71.362 c2.929-2.93,2.929-7.678,0-10.607c-2.93-2.928-7.678-2.928-10.607,0l-71.361,71.362C47.838,125.071,47.838,129.819,50.767,132.749z "/><path d="M168.416,15.099C158.68,5.362,145.736,0,131.966,0c-13.769,0.001-26.713,5.363-36.449,15.099L70.874,39.741 c-2.929,2.93-2.929,7.678,0,10.608c2.928,2.927,7.677,2.929,10.606,0l24.644-24.644C113.027,18.803,122.204,15,131.967,15 c9.762,0,18.939,3.802,25.842,10.705c6.903,6.902,10.705,16.081,10.705,25.843s-3.802,18.939-10.705,25.842l-24.643,24.643 c-2.929,2.93-2.929,7.678,0,10.607c1.465,1.464,3.385,2.196,5.304,2.196c1.919,0,3.839-0.732,5.304-2.196l24.642-24.643 c9.736-9.736,15.099-22.681,15.099-36.449C183.514,37.779,178.153,24.834,168.416,15.099z"/><path d="M102.022,133.179l-24.643,24.645c-6.903,6.902-16.081,10.704-25.842,10.704c-9.762,0-18.939-3.801-25.842-10.704 c-14.25-14.249-14.25-37.436,0-51.686l24.643-24.643c2.929-2.93,2.929-7.678,0-10.607c-2.929-2.928-7.678-2.928-10.607,0 L15.087,95.531c-20.098,20.099-20.098,52.801,0,72.899c9.736,9.735,22.68,15.098,36.449,15.097 c13.769,0,26.713-5.362,36.449-15.098l24.645-24.644c2.929-2.93,2.929-7.678,0-10.607 C109.7,130.252,104.952,130.25,102.022,133.179z"/></symbol><symbol id="folder-1" viewBox="0 0 309.267 309.267"><title>folder-1</title><path style="fill:#D0994B;" d="M280.273,120.972V62.82c0-10.67-8.659-19.329-19.329-19.329H125.64c0,0-18.324-28.994-28.994-28.994 H48.323c-10.67,0-19.329,8.65-19.329,19.329v87.146H280.273z"/><path style="fill:#E4E7E7;" d="M28.994,72.484h251.279V149.8H28.994V72.484z"/><path style="fill:#F4B459;" d="M179.597,236.783c0-39.586,32.096-71.682,71.682-71.682c19.126,0,36.445,7.538,49.328,19.754 l8.659-73.712c0-10.679-8.659-19.329-19.329-19.329H19.329C8.659,91.814,0,100.463,0,111.143l19.329,164.298 c0,10.67,8.659,19.329,19.329,19.329h170.599C191.32,281.723,179.597,260.644,179.597,236.783z"/><path style="fill:#E2574C;" d="M251.279,178.794c32.009,0,57.988,25.959,57.988,57.988s-25.978,57.988-57.988,57.988 s-57.988-25.959-57.988-57.988C193.292,204.772,219.27,178.794,251.279,178.794z"/><path style="fill:#FFFFFF;" d="M231.95,227.117h38.658c5.345,0,9.665,4.33,9.665,9.665c0,5.345-4.32,9.665-9.665,9.665H231.95 c-5.345,0-9.665-4.32-9.665-9.665C222.286,231.447,226.606,227.117,231.95,227.117z"/></symbol><symbol id="folder" viewBox="0 0 309.267 309.267"><title>folder</title><path style="fill:#D0994B;" d="M280.273,120.972V62.82c0-10.67-8.659-19.329-19.329-19.329H125.64c0,0-18.324-28.994-28.994-28.994 H48.323c-10.67,0-19.329,8.65-19.329,19.329v87.146H280.273z"/><path style="fill:#E4E7E7;" d="M28.994,72.484h251.279V149.8H28.994V72.484z"/><path style="fill:#3DB39E;" d="M251.279,178.794c32.028,0,57.988,25.969,57.988,57.988c0,32.009-25.959,57.988-57.988,57.988 c-32.009,0-57.988-25.978-57.988-57.988C193.292,204.764,219.27,178.794,251.279,178.794z"/><path style="fill:#FFFFFF;" d="M270.609,227.117h-9.665v-9.665c0-5.345-4.32-9.665-9.665-9.665s-9.665,4.32-9.665,9.665v9.665 h-9.665c-5.345,0-9.665,4.32-9.665,9.665c0,5.354,4.32,9.665,9.665,9.665h9.665v9.665c0,5.354,4.32,9.665,9.665,9.665 s9.665-4.31,9.665-9.665v-9.665h9.665c5.345,0,9.665-4.31,9.665-9.665C280.273,231.438,275.953,227.117,270.609,227.117z"/><path style="fill:#F4B459;" d="M179.597,236.783c0-39.586,32.106-71.682,71.682-71.682c19.126,0,36.455,7.538,49.318,19.754 l8.669-73.712c0-10.679-8.659-19.329-19.329-19.329H19.329C8.659,91.814,0,100.463,0,111.143l19.329,164.298 c0,10.67,8.659,19.329,19.329,19.329h170.609C191.32,281.733,179.597,260.644,179.597,236.783z"/></symbol><symbol id="plus" viewBox="0 0 490.2 490.2"><title>plus</title><path d="M418.5,418.5c95.6-95.6,95.6-251.2,0-346.8s-251.2-95.6-346.8,0s-95.6,251.2,0,346.8S322.9,514.1,418.5,418.5z M89,89 c86.1-86.1,226.1-86.1,312.2,0s86.1,226.1,0,312.2s-226.1,86.1-312.2,0S3,175.1,89,89z"/><path d="M245.1,336.9c3.4,0,6.4-1.4,8.7-3.6c2.2-2.2,3.6-5.3,3.6-8.7v-67.3h67.3c3.4,0,6.4-1.4,8.7-3.6c2.2-2.2,3.6-5.3,3.6-8.7 c0-6.8-5.5-12.3-12.2-12.2h-67.3v-67.3c0-6.8-5.5-12.3-12.2-12.2c-6.8,0-12.3,5.5-12.2,12.2v67.3h-67.3c-6.8,0-12.3,5.5-12.2,12.2 c0,6.8,5.5,12.3,12.2,12.2h67.3v67.3C232.8,331.4,238.3,336.9,245.1,336.9z"/></symbol></svg>